<svg xmlns="http://www.w3.org/2000/svg" viewBox="-4 -34 131 131">
  <rect x="-4" y="-34" width="131" height="131" rx="18" fill="#1d71b8"/>
  <path fill="#36a9e1" d="M103.4982634,38.4037243V2.8782193H18.9895998C10.8630963,2.8782193,3.3121555,7.3366171,3.3121555,15.3944958c0,6.46844,4.5314499,10.1387595,8.1995557,10.6390564v1.2263914c-3.4533766.5755628-8.845957,3.3781107-8.845957,11.5776664,0,8.987634,7.3339979,14.3802144,16.2507934,14.3802144h29.4112574V18.0509394h10.4248806v35.1668851h18.1213724V18.0509394h8.502833v35.1668851h31.9990762v-14.8141002h-13.8777038ZM30.2064327,41.498481h-5.1778512c-2.5147666,0-4.3145071-1.5141728-4.3145071-4.0997779,0-2.5900325,1.870579-4.0997779,4.3145071-4.0997779h5.1778512v8.1995557ZM30.2064327,21.6504204h-4.7461791c-2.3000374,0-3.882835-1.221964-3.882835-3.599481,0-2.3686622,1.6536361-3.5950536,3.882835-3.5950536h4.7461791v7.1945346Z"/>
</svg>
