<?xml version="1.0" encoding="UTF-8"?>
<svg id="Calque_1" xmlns="http://www.w3.org/2000/svg" version="1.1" viewBox="0 0 122.7293626 78.146184">
  <defs>
    <style>
      .st0 { fill: #36a9e1; }
      .st1 { fill: #ffffff; }
    </style>
  </defs>
  <path class="st1" d="M4.4258329,58.9804655h9.5327734c2.64052,0,5.0940241,1.4486536,5.0940241,4.0668755,0,2.1017704-1.4723902,3.2943561-2.6642566,3.4569161v.3984876c1.1220951.1870159,2.8742898,1.0976392,2.8742898,3.7618958,0,2.9203244-2.3830135,4.6725191-5.2803206,4.6725191H4.4258329v-16.356694ZM13.1177542,63.910491c0-.7696422-.5373109-1.1681298-1.2616377-1.1681298h-1.5421615v2.3376981h1.5421615c.7473441,0,1.2616377-.397049,1.2616377-1.1695684ZM13.398278,70.1971008c0-.8415713-.6078015-1.3321283-1.4018996-1.3321283h-1.6824234v2.6642566h1.6824234c.8171154,0,1.4018996-.4919955,1.4018996-1.3321283Z"/>
  <path class="st1" d="M19.8546406,67.1588125c0-5.0005161,3.8079304-8.5523787,8.8789372-8.5523787,5.0702874,0,8.8789372,3.5518626,8.8789372,8.5523787s-3.8086497,8.5523787-8.8789372,8.5523787c-5.0710067,0-8.8789372-3.5518626-8.8789372-8.5523787ZM31.537377,67.1588125c0-1.775212-.9818332-3.1548135-2.8037992-3.1548135-1.8226853,0-2.8275358,1.3796015-2.8275358,3.1548135,0,1.7766506,1.0048506,3.1548135,2.8275358,3.1548135,1.821966,0,2.8037992-1.378163,2.8037992-3.1548135Z"/>
  <path class="st1" d="M48.2414889,73.3504758h-4.9156397l-.5876613,1.9866838h-6.1916633l6.3556618-16.3581326h5.7715969l6.3793984,16.3581326h-6.2161192l-.5955736-1.9866838ZM44.7831343,69.1454963h2.0435078l-.9012725-3.5058279h-.2575064l-.8847288,3.5058279Z"/>
  <path class="st1" d="M66.0418015,63.910491h-3.434618v11.4266685h-5.8881221v-11.4266685h-3.434618v-4.9300256h12.7573582v4.9300256Z"/>
  <path class="st1" d="M71.2581052,58.9804655v11.5431938h4.5092399v4.8135003h-10.397362v-16.356694h5.8881221Z"/>
  <path class="st0" d="M103.4982634,38.4037243V2.8782193H18.9895998C10.8630963,2.8782193,3.3121555,7.3366171,3.3121555,15.3944958c0,6.46844,4.5314499,10.1387595,8.1995557,10.6390564v1.2263914c-3.4533766.5755628-8.845957,3.3781107-8.845957,11.5776664,0,8.987634,7.3339979,14.3802144,16.2507934,14.3802144h29.4112574V18.0509394h10.4248806v35.1668851h18.1213724V18.0509394h8.502833v35.1668851h31.9990762v-14.8141002h-13.8777038ZM30.2064327,41.498481h-5.1778512c-2.5147666,0-4.3145071-1.5141728-4.3145071-4.0997779,0-2.5900325,1.870579-4.0997779,4.3145071-4.0997779h5.1778512v8.1995557ZM30.2064327,21.6504204h-4.7461791c-2.3000374,0-3.882835-1.221964-3.882835-3.599481,0-2.3686622,1.6536361-3.5950536,3.882835-3.5950536h4.7461791v7.1945346Z"/>
  <path class="st1" d="M89.1396977,58.9804655v4.2294354h-5.1868127v1.8226853h4.9530429v4.2064181h-4.9530429v1.9161932h5.1637954v4.1819621h-11.0526368v-16.356694h11.0756541Z"/>
  <path class="st1" d="M98.7782069,63.4213726c-.5970121,0-1.434987.1625599-1.434987.766765,0,1.5421615,6.657045.2229804,6.657045,5.9284025,0,3.5777571-3.4511617,5.5716338-6.9821649,5.5716338-2.6023975,0-4.985411-.6746956-6.4952044-1.464478v-5.1098485h.3488565c1.0185171.8919218,2.8886756,1.6486167,4.6538175,1.6486167.650959,0,1.37097-.2085946,1.37097-.7437477,0-1.6486167-6.6059753-.6675027-6.6059753-5.9413497,0-3.5317224,3.4281444-5.4881959,6.9591475-5.4881959,2.0909811,0,4.2416634.4646625,5.5191255.9983769v4.8796751h-.2783659c-.9293249-.6502397-2.6103097-1.0458502-3.7122646-1.0458502Z"/>
  <path class="st1" d="M113.2251814,63.4213726c-.5970121,0-1.434987.1625599-1.434987.766765,0,1.5421615,6.657045.2229804,6.657045,5.9284025,0,3.5777571-3.4511617,5.5716338-6.9821649,5.5716338-2.6023975,0-4.985411-.6746956-6.4952044-1.464478v-5.1098485h.3481372c1.0192364.8919218,2.8893949,1.6486167,4.6552561,1.6486167.6502397,0,1.3702508-.2085946,1.3702508-.7437477,0-1.6486167-6.6059753-.6675027-6.6059753-5.9413497,0-3.5317224,3.4281444-5.4881959,6.9591475-5.4881959,2.0909811,0,4.2416634.4646625,5.5198448.9983769v4.8796751h-.2790852c-.9293249-.6502397-2.6103097-1.0458502-3.7122646-1.0458502Z"/>
</svg>
